PathFileType	4	(X/Y/Z)	D:\TRACE\v60_Jaco2_6-2-23\JustArmDRS_Motion1_3-v60.trc
DataRate	CameraRate	NumFrames	NumMarkers	Units	OrigDataRate	OrigDataStartFrame	OrigNumFrames
100.00	100.00	      35	9	mm	100.00	1691	      6763
Frame#	Time	front left toe			Front right toe			aft left toe			aft right toe			Arm			FL body			FR body			AL Body			AR Body			
		X1	Y1	Z1	X2	Y2	Z2	X3	Y3	Z3	X4	Y4	Z4	X5	Y5	Z5	X6	Y6	Z6	X7	Y7	Z7	X8	Y8	Z8	X9	Y9	Z9	

1691	16.900	-198.99385	15.79558	-168.91534	208.37195	13.76037	-213.50522	-132.72139	23.80914	435.86035	269.69672	27.57393	423.84525	-25.29560	1199.14282	-524.38971	-92.02811	572.12878	-319.33075	67.55678	574.31036	-336.79596	5.42142	597.10498	620.78357	161.33560	593.02161	605.73962	
1692	16.910	-198.12833	15.78653	-168.84389	209.70793	14.13243	-213.49918	-131.48863	23.39593	435.81821	270.41721	27.29092	423.82202	-24.12085	1199.25122	-523.82965	-90.98119	572.27850	-319.09814	68.08833	574.26013	-335.65967	6.54129	596.77325	620.95062	162.27336	592.62726	606.16772	
1693	16.920	-197.10526	15.82757	-168.75656	210.77921	14.32250	-213.42451	-130.76808	23.37136	435.91217	272.04001	27.24811	424.02960	-22.63605	1199.44580	-523.63623	-90.02381	572.32306	-319.02405	69.57314	574.32776	-335.39548	7.77626	596.57446	621.06873	164.47124	592.99225	605.73346	
1694	16.930	-196.28175	15.92942	-168.77927	211.70070	14.37045	-213.41704	-129.84775	22.90881	436.06039	272.50775	26.87298	424.06650	-21.27728	1199.61902	-523.27637	-88.69070	572.67273	-318.70032	70.80299	574.59644	-335.69266	8.64440	596.40741	621.26312	165.55235	592.69666	605.63605	
1695	16.940	-195.08105	16.08298	-168.65025	212.79425	14.74381	-213.29526	-128.56999	22.53874	436.24350	273.40665	26.57299	424.17953	-19.72530	1199.80957	-522.91180	-87.56725	572.64728	-318.51346	72.28522	574.54468	-335.55740	10.15830	595.93622	621.54291	166.09875	592.12610	606.74457	
1696	16.950	-194.17799	16.22708	-168.51979	213.68858	14.92466	-213.18681	-127.72610	22.46884	436.36911	274.68060	26.44652	424.31384	-18.56344	1199.84009	-522.42871	-86.49680	572.77856	-318.30215	72.66472	574.41437	-334.70874	10.66574	595.71600	621.36523	167.41031	591.86011	606.92023	
1697	16.960	-193.23874	16.26991	-168.46516	214.47887	15.16194	-213.11752	-126.88318	22.42565	436.35471	275.62701	26.11805	424.24658	-17.07472	1200.01453	-522.15436	-85.20605	572.85693	-318.07309	73.60426	574.53589	-334.61191	12.48846	595.53381	621.50415	168.64401	591.60266	607.07458	
1698	16.970	-192.02762	16.31172	-168.36621	215.75377	15.27442	-212.91513	-125.96472	22.20760	436.37048	276.66510	25.82610	424.50919	-15.54569	1200.19043	-521.65955	-84.05231	572.87054	-318.13849	76.24641	574.71625	-334.99759	13.50175	595.55560	622.10309	169.54118	591.30432	607.12134	
1699	16.980	-191.28459	16.62554	-168.44261	216.63379	15.18147	-212.78204	-123.50222	20.92532	436.74112	277.65610	25.51526	424.52548	-14.16494	1200.30774	-521.35614	-83.19394	573.15173	-317.90326	76.92067	574.79126	-334.95657	15.05734	595.23755	622.22278	170.56839	590.61713	607.16107	
1700	16.990	-190.37408	16.87562	-168.21368	217.39169	15.19764	-212.66196	-122.75360	20.70690	436.94766	278.31784	25.25268	424.64386	-12.61597	1200.47791	-520.87598	-81.58999	573.25916	-317.63492	77.71364	574.53467	-334.38425	16.14775	594.85382	622.46649	171.62852	590.11517	607.22455	
1701	17.000	-189.28038	17.01118	-168.00566	218.93179	15.41738	-212.58035	-121.72563	20.47589	437.03387	279.75391	25.04524	424.83917	-10.73603	1200.76050	-520.52576	-80.60547	573.29651	-317.52722	79.33433	574.73279	-334.57321	17.28612	594.49957	622.61951	173.11937	589.92743	607.57629	
1702	17.010	-188.13025	17.10288	-168.00948	219.41954	15.38830	-212.68544	-120.46355	20.07576	437.08612	280.24994	24.53045	424.72028	-9.55253	1200.81531	-520.06708	-78.52955	572.96167	-317.14578	80.74329	574.80591	-334.35812	18.25444	594.22943	622.72699	174.53627	589.89398	607.82037	
1703	17.020	-187.41406	17.34649	-167.98018	220.57277	15.60778	-212.47464	-119.67286	19.82275	437.19791	281.50458	24.41355	424.79675	-8.05294	1201.09302	-519.81274	-77.63087	573.41681	-317.35498	81.29857	574.75293	-333.86050	19.59145	594.07184	622.80518	175.80386	589.67786	608.11206	
1704	17.030	-186.62521	17.47206	-167.92949	221.67755	15.72045	-212.32277	-118.92419	19.75504	437.03790	282.53268	24.24402	425.07297	-6.52858	1201.41626	-519.51550	-76.73081	573.57922	-317.12259	82.61524	574.88739	-333.56808	20.73348	593.75177	623.03790	176.50641	588.97803	607.99854	
1705	17.040	-185.24606	17.52225	-167.81656	222.28069	15.83813	-212.41803	-118.79692	20.33619	436.79886	283.19516	23.65948	424.99542	-4.70020	1201.45276	-519.14075	-75.55397	573.73840	-317.13416	84.28378	574.94763	-333.93161	22.00677	593.40338	623.12152	178.08331	588.81012	608.20740	
1706	17.050	-184.51672	17.90811	-167.59235	223.51112	16.05594	-212.10559	-117.95718	20.10696	436.88589	284.54504	23.63227	425.27353	-3.58567	1201.42761	-518.65912	-74.29761	574.14172	-316.70465	85.59206	575.11011	-333.87717	23.32663	593.10669	622.92175	179.03618	588.43304	608.41461	
1707	17.060	-183.62686	18.08615	-167.57552	224.49687	16.31338	-212.09480	-116.04698	19.12490	437.21689	285.45569	23.35330	425.21869	-2.15377	1201.58374	-518.48492	-72.92725	574.05249	-316.74127	86.26540	575.02277	-333.28400	24.31791	593.12964	623.59235	180.74548	588.37219	608.60846	
1708	17.070	-182.56223	18.03268	-167.68279	225.29698	16.40235	-211.99205	-114.79504	18.85918	437.33676	286.12860	22.94505	425.20703	-0.72825	1201.93860	-518.08740	-72.06226	574.28076	-316.46982	87.70200	575.24841	-333.30847	25.62208	592.96533	623.81805	182.54300	588.51038	608.54126	
1709	17.080	-181.61128	18.36795	-167.43239	226.42001	16.50796	-211.74318	-114.14223	18.77213	437.49396	287.48053	22.77961	425.44144	1.08121	1202.23682	-517.64435	-70.64476	574.66705	-316.32123	89.08968	575.52032	-333.41922	26.98379	592.78168	623.90491	182.93434	587.56793	608.93854	
1710	17.090	-180.88374	18.78443	-167.40028	227.27814	16.48394	-211.78706	-113.12798	18.28843	437.66071	287.98599	22.44548	425.54642	2.67188	1202.32776	-517.26886	-69.41653	574.78394	-316.33310	89.84976	575.46472	-333.03967	28.04998	592.50641	623.96210	184.16888	587.39862	608.90918	
1711	17.100	-179.49582	18.55997	-167.21246	228.28639	16.63297	-211.73465	-111.95319	17.86342	437.77628	288.96790	21.92916	425.60635	4.22023	1202.63611	-516.80652	-68.37553	574.85278	-316.09970	91.14288	575.54913	-332.85754	29.28905	592.12744	624.18488	185.42888	587.15839	609.41754	
1712	17.110	-178.69865	18.55533	-167.26199	229.13205	16.82860	-211.61230	-111.16867	17.63589	438.01669	290.14529	21.85793	425.76266	6.17149	1203.10413	-516.29810	-67.01507	575.00812	-316.05511	92.65403	575.92133	-332.74084	30.48669	591.91150	624.34570	186.64053	586.84149	609.49127	
1713	17.120	-178.11064	19.04560	-167.25809	230.01248	16.86244	-211.52133	-111.31947	18.34165	437.70541	290.97693	21.47084	425.69211	7.25176	1203.41260	-515.57684	-65.80518	575.37219	-315.81250	94.01774	575.97565	-332.64206	31.50265	591.59900	624.57452	187.69681	586.23553	609.53479	
1714	17.130	-176.86111	19.16883	-167.01324	230.88841	17.00556	-211.34331	-110.67993	18.20049	437.75790	291.97339	21.20290	425.87305	8.61670	1203.72473	-515.33569	-64.58662	575.56250	-315.73175	94.60948	575.99908	-332.15207	32.70521	591.22382	624.69012	188.95250	585.92981	609.77679	
1715	17.140	-175.83174	19.16970	-166.97754	231.90785	17.32928	-211.24014	-109.50257	17.82870	437.91696	292.86493	20.93860	425.99539	10.31679	1203.83142	-514.63959	-63.71815	575.70496	-315.62872	95.70838	576.06085	-332.02325	33.82408	590.89264	624.87427	190.27443	585.74573	609.87012	
1716	17.150	-175.09987	19.43601	-166.67703	232.76424	17.33855	-211.16934	-108.57083	17.48564	437.99493	293.57013	20.50692	426.06320	11.26168	1204.16394	-514.32288	-62.33036	575.72974	-315.23804	97.47128	576.25415	-332.18790	35.26383	590.78870	625.14026	191.49699	585.49756	610.08344	
1717	17.160	-174.48332	19.72191	-166.65880	233.80241	17.71350	-211.04030	-107.74545	17.20752	438.11572	294.78229	20.28902	426.22318	12.95919	1204.42700	-514.00885	-61.34851	576.20789	-315.27066	98.66233	576.35675	-332.03586	36.42596	590.54022	625.30145	192.48566	585.13361	610.12775	
1718	17.170	-173.17871	19.63955	-166.66066	234.67366	17.92961	-210.76668	-106.88936	16.92588	438.14276	295.44223	19.87293	426.22684	14.41832	1204.41052	-513.78882	-60.42886	576.38177	-315.01105	99.31783	576.32874	-331.54755	37.41616	590.22858	625.12091	193.36758	584.27698	610.06213	
1719	17.180	-172.31107	19.78118	-166.40739	235.49858	17.96823	-210.75648	-105.75957	16.51935	438.32416	295.87741	19.47739	426.44589	15.98024	1204.36365	-513.09406	-58.78700	576.11896	-314.74466	100.26833	576.42883	-331.52234	38.59167	589.94501	625.58990	194.58089	583.84863	610.33746	
1720	17.190	-171.69189	20.09304	-166.12428	236.31563	18.18820	-210.57794	-105.20488	16.38092	438.39487	297.50940	19.32119	426.52621	17.12980	1204.43127	-512.99200	-57.90501	576.53693	-314.50671	101.96693	576.66064	-331.47382	40.04057	589.71240	625.85034	196.25291	584.29663	611.02795	
1721	17.200	-170.53392	20.12456	-166.13982	237.31085	18.43242	-210.36005	-104.47469	16.24183	438.45584	298.11780	19.04861	426.49576	18.59912	1204.90015	-512.61871	-56.70977	576.76971	-314.44363	103.04660	576.69977	-331.46729	41.25413	589.52350	626.02063	197.48206	583.80200	611.07922	
1722	17.210	-169.69209	20.29858	-166.22969	238.11775	18.42922	-210.46211	-103.46288	15.89150	438.58847	298.77359	18.49036	426.71127	20.16300	1204.96863	-512.13409	-55.28622	576.79584	-314.16193	103.98396	576.76825	-330.81775	42.39844	589.21960	626.25867	198.54222	583.44257	611.21283	
1723	17.220	-168.99217	20.26843	-166.09785	238.91965	18.49050	-210.39949	-102.28378	15.54179	438.70963	299.84232	18.23767	426.84286	21.43221	1205.09143	-511.50571	-54.35796	576.95404	-314.02322	105.15630	576.74420	-330.56711	43.27658	588.94220	626.40674	199.21513	582.86865	611.38641	
1724	17.230	-168.25748	20.56637	-165.81104	239.73561	18.62860	-210.13556	-101.50877	15.30412	438.86932	300.57187	18.02014	426.90128	22.94933	1205.44775	-511.17712	-53.16874	577.06134	-313.97430	106.56541	577.09149	-331.15408	44.61207	588.51428	626.58185	200.30261	582.37659	611.43677	
1725	17.240	-166.76675	20.58685	-165.72415	240.54105	18.74499	-210.08606	-100.77981	15.06378	438.84607	301.47867	17.53011	426.97052	24.65532	1205.70276	-510.50803	-51.86525	577.37811	-313.48700	107.94212	577.12256	-330.55542	45.61886	588.30737	626.80011	201.97406	582.47467	611.93335	
